<svg
  xmlns="http://www.w3.org/2000/svg"
  width="20"
  height="20"
  viewBox="0 0 20 20"
  fill="none"
>
  <path
    fill-rule="evenodd"
    clip-rule="evenodd"
    d="M1 0C0.447715 0 0 0.447716 0 1V9.90909C0 10.4614 0.447715 10.9091 1 10.9091H8.09091C8.64319 10.9091 9.09091 10.4614 9.09091 9.90909V1C9.09091 0.447715 8.64319 0 8.09091 0H1ZM7.27273 1.81818H1.81818V9.09091H7.27273V1.81818Z"
    fill="#545454"
  />
  <path
    fill-rule="evenodd"
    clip-rule="evenodd"
    d="M11.9092 9.09091C11.3569 9.09091 10.9092 9.53863 10.9092 10.0909V19C10.9092 19.5523 11.3569 20 11.9092 20H19.0001C19.5524 20 20.0001 19.5523 20.0001 19V10.0909C20.0001 9.53863 19.5524 9.09091 19.0001 9.09091H11.9092ZM18.1819 10.9091H12.7274V18.1818H18.1819V10.9091Z"
    fill="#545454"
  />
  <path
    fill-rule="evenodd"
    clip-rule="evenodd"
    d="M11.9092 0C11.3569 0 10.9092 0.447716 10.9092 1V6.27273C10.9092 6.82501 11.3569 7.27273 11.9092 7.27273H19.0001C19.5524 7.27273 20.0001 6.82501 20.0001 6.27273V1C20.0001 0.447715 19.5524 0 19.0001 0H11.9092ZM18.1819 1.81818H12.7274V5.45455H18.1819V1.81818Z"
    fill="#545454"
  />
  <path
    fill-rule="evenodd"
    clip-rule="evenodd"
    d="M1 12.7273C0.447715 12.7273 0 13.175 0 13.7273V19C0 19.5523 0.447715 20 1 20H8.09091C8.64319 20 9.09091 19.5523 9.09091 19V13.7273C9.09091 13.175 8.64319 12.7273 8.09091 12.7273H1ZM7.27273 14.5455H1.81818V18.1818H7.27273V14.5455Z"
    fill="#545454"
  />
</svg>
