<svg width="20" height="20" viewBox="0 0 20 20" fill="none" xmlns="http://www.w3.org/2000/svg">
<g id="Group 147">
<path id="Subtract" fill-rule="evenodd" clip-rule="evenodd" d="M1 0C0.447715 0 0 0.447716 0 1V9.90909C0 10.4614 0.447715 10.9091 1 10.9091H8.09091C8.64319 10.9091 9.09091 10.4614 9.09091 9.90909V1C9.09091 0.447715 8.64319 0 8.09091 0H1ZM7.27273 1.81818H1.81818V9.09091H7.27273V1.81818Z" fill="#545454"/>
<path id="Subtract_2" fill-rule="evenodd" clip-rule="evenodd" d="M11.9091 9.09091C11.3568 9.09091 10.9091 9.53863 10.9091 10.0909V19C10.9091 19.5523 11.3568 20 11.9091 20H19C19.5523 20 20 19.5523 20 19V10.0909C20 9.53863 19.5523 9.09091 19 9.09091H11.9091ZM18.1818 10.9091H12.7272V18.1818H18.1818V10.9091Z" fill="#545454"/>
<path id="Subtract_3" fill-rule="evenodd" clip-rule="evenodd" d="M11.9091 0C11.3568 0 10.9091 0.447716 10.9091 1V6.27273C10.9091 6.82501 11.3568 7.27273 11.9091 7.27273H19C19.5523 7.27273 20 6.82501 20 6.27273V1C20 0.447715 19.5523 0 19 0H11.9091ZM18.1818 1.81818H12.7272V5.45455H18.1818V1.81818Z" fill="#545454"/>
<path id="Subtract_4" fill-rule="evenodd" clip-rule="evenodd" d="M1 12.7273C0.447715 12.7273 0 13.175 0 13.7273V19C0 19.5523 0.447715 20 1 20H8.09091C8.64319 20 9.09091 19.5523 9.09091 19V13.7273C9.09091 13.175 8.64319 12.7273 8.09091 12.7273H1ZM7.27273 14.5454H1.81818V18.1818H7.27273V14.5454Z" fill="#545454"/>
</g>
</svg>
