<svg
  xmlns="http://www.w3.org/2000/svg"
  width="14"
  height="14"
  viewBox="0 0 14 14"
  fill="none"
>
  <path
    d="M4.81238 3.96851H5.96707V9.25444C5.96707 9.32319 6.02332 9.37944 6.09207 9.37944H7.02957C7.09832 9.37944 7.15457 9.32319 7.15457 9.25444V3.96851H8.31238C8.41707 3.96851 8.47488 3.84819 8.41082 3.76694L6.66082 1.55132C6.64912 1.53638 6.63418 1.52429 6.61713 1.51599C6.60007 1.50768 6.58135 1.50336 6.56238 1.50336C6.54341 1.50336 6.52468 1.50768 6.50763 1.51599C6.49057 1.52429 6.47563 1.53638 6.46394 1.55132L4.71394 3.76538C4.64988 3.84819 4.70769 3.96851 4.81238 3.96851ZM12.2811 8.78569H11.3436C11.2749 8.78569 11.2186 8.84194 11.2186 8.91069V11.3169H1.90613V8.91069C1.90613 8.84194 1.84988 8.78569 1.78113 8.78569H0.843628C0.774878 8.78569 0.718628 8.84194 0.718628 8.91069V12.0044C0.718628 12.281 0.942065 12.5044 1.21863 12.5044H11.9061C12.1827 12.5044 12.4061 12.281 12.4061 12.0044V8.91069C12.4061 8.84194 12.3499 8.78569 12.2811 8.78569Z"
    fill="black"
    fill-opacity="0.85"
  />
</svg>
